<svg xmlns="http://www.w3.org/2000/svg" version="1.1" xmlns:xlink="http://www.w3.org/1999/xlink" width="1000" height="1000"><g clip-path="url(#SvgjsClipPath1126)"><rect width="1000" height="1000" fill="#ffffff"></rect><g transform="matrix(1.4816069085213563,0,0,1.4816069085213563,232.12547093933875,149.99999999999997)"><svg xmlns="http://www.w3.org/2000/svg" version="1.1" xmlns:xlink="http://www.w3.org/1999/xlink" width="361.6" height="472.46"><svg id="Layer_1" data-name="Layer 1" xmlns="http://www.w3.org/2000/svg" width="361.6" height="472.46" viewBox="0 0 361.6 472.46">
  <defs>
    <style>
      .cls-1 {
        fill: #bf0d3e;
      }

      .cls-2 {
        fill: #fed141;
      }

      .cls-3 {
        isolation: isolate;
      }

      .cls-4 {
        fill: #0032a0;
      }
    </style>
  <clipPath id="SvgjsClipPath1126"><rect width="1000" height="1000" x="0" y="0" rx="500" ry="500"></rect></clipPath></defs>
  <g>
    <g>
      <path class="cls-1" d="M361.59,359.27c-45.02,21.16-90.93,23.95-139.67,17.19-11.85-1.64-35.72-1.6-44.48-11.45-4.86-5.45-2.53-9.55-2.38-15.9.19-8.41,2.28-11.62-4.93-17.55-10.72-8.81-34.1-8.75-47.38-9.59-43.91-2.82-83.71,8.79-122.72,28.26v-51.12c.88-12.51,9.97-25.82,21.73-30.74,36.1-14.14,72.08-20.95,110.88-16.92,10.2,1.06,32.2,1.14,39.69,10.11,5.13,6.15,2.82,9.1,2.73,16.21-.1,7.11-2.41,10.06,2.73,16.21,7.54,9.03,29.98,9.14,40.23,10.62,41.51,6.05,80.94,5.49,121.25-6.75,8.86-3.7,22.72-2.2,22.33,10.3v51.12h-.02.02Z"></path>
      <path class="cls-4" d="M339.25,288.67c-40.31,12.25-79.76,12.8-121.25,6.75-10.24-1.49-32.68-1.59-40.23-10.62-5.13-6.15-2.82-9.1-2.73-16.21.1-7.11,2.41-10.06-2.73-16.21-7.49-8.98-29.51-9.05-39.69-10.11-38.8-4.04-74.78,2.76-110.88,16.92-8.66,4.27-22.14,2.61-21.73-9.71v-51.12c39.01-19.47,78.81-31.09,122.72-28.26,13.28.86,36.65.8,47.38,9.59,7.22,5.93,5.13,9.15,4.93,17.55-.15,6.35-2.48,10.45,2.38,15.9,8.76,9.84,32.63,9.8,44.48,11.45,48.75,6.75,94.65,3.96,139.67-17.19v51.12c-.02,13.06-10.9,25.37-22.33,30.15h.02-.02Z"></path>
    </g>
    <g>
      <path class="cls-2" d="M71.28,163.57l-37.31-3.73-19.37,13.77,8.63,5.91c11.01-4.61,20.71-7.97,28.5-10.43,6.03-1.89,12.18-3.81,19.55-5.53h-.01Z"></path>
      <path class="cls-2" d="M342.22,187.14l19.37-13.77-19.8-13.54-68.43,7.33c-.06-.78-.1-1.55-.18-2.32l55.28-9.49-12.47-13.64h0l-44.59,12.49c-1.79-7.79-4.63-15.17-8.4-21.98l41.17-22.64-.47-18.99-47.31,31.45c-.37-.48-.74-.95-1.12-1.43l55.67-41.94,4.89-23.25-23.73,3.47-45.63,52.14c-.56-.52-1.13-1.04-1.7-1.54l34.49-44.85-18.41-1.59-24.55,39.81c-8.28-5.67-17.61-9.91-27.65-12.4l11.16-45.17-14.27-12.54-8.9,55.62c-.6-.07-1.22-.09-1.84-.14l6.89-68.88L187.95,0l-13.54,19.8,7.33,68.43c-.78.06-1.55.1-2.32.18l-9.49-55.28-13.64,12.47,12.49,44.6c-7.59,1.75-14.79,4.48-21.48,8.11l-22.49-40.87-18.99.47,31.22,46.97c-.49.37-.97.75-1.45,1.13l-41.69-55.33-23.25-4.89,3.47,23.73,51.78,45.31c-.54.57-1.07,1.13-1.59,1.7l-44.45-34.18-1.59,18.41,39.34,24.26c-5.77,8.36-10.09,17.78-12.6,27.93l-45.17-11.16-12.54,14.27,34.17,5.46c12.4-2.2,22.15-2.75,26.53-2.92,2.32-.09,9.22.09,23.02.44,11.01.29,16.32.47,23.66,1.39,0,0,7.61.96,17.29,4.6,3.25,1.22,6.05,2.51,8.09,5.35,1.89,2.65,2.32,5.5,2.54,7.19.41,2.95-.18,3.64-.62,9.84-.33,4.6-.48,6.95.14,9.03.4,1.37.97,2.54,1.59,3.55,1.61,1.3,2.95,2.81,4,4.54,3.32,2.76,6.9,3.74,9.02,4.29,11.47,2.98,22.28,4.09,27.3,4.6,10.44,1.04,15.76,1.59,21.42,2.05,6.42.54,11.97.94,16.4,1.24,4.07-6.96,7.21-14.53,9.2-22.56l45.17,11.16,12.54-14.27-55.62-8.9c.07-.6.09-1.22.14-1.84l68.88,6.89h-.03l.07-.05Z"></path>
    </g>
  </g>
  <g class="cls-3">
    <g class="cls-3">
      <g class="cls-3">
        <path class="cls-2" d="M87.63,415.47c0,7.99-5.86,15.98-17.33,15.98h-13.51v-31.87h13.51c11.52,0,17.33,7.94,17.33,15.88ZM78.36,415.47c0-4.56-2.65-9.07-8.06-9.07h-4.64v18.24h4.64c5.35,0,8.06-4.61,8.06-9.17Z"></path>
        <path class="cls-2" d="M101.81,431.45h-8.92v-31.87h8.92v31.87Z"></path>
        <path class="cls-2" d="M130.82,400.91l-1.83,6.62c-3.57-1.32-6.63-1.81-8.62-1.81-2.6,0-3.67,1.28-3.67,2.5s1.17,2.01,4.38,3.24c7.54,2.75,11.27,6.13,11.27,11.47,0,6.03-5.15,9.22-12.69,9.22-3.87,0-8.16-.98-12.64-3.19l1.83-6.72c4.89,2.21,7.54,2.94,10.09,2.94,2.8,0,4.13-.78,4.13-2.45,0-1.81-1.78-2.6-5.91-4.27-6.63-2.65-9.69-5.59-9.69-9.8,0-5.44,5.1-9.76,12.64-9.76,3.26,0,6.53.44,10.71,2.01Z"></path>
        <path class="cls-2" d="M136.17,415.52c0-10.49,7.39-16.62,17.38-16.62,3.11,0,6.53.49,9.64,1.67l-1.99,6.81c-2.09-.83-4.49-1.13-6.78-1.13-4.94,0-8.97,2.5-8.97,9.17,0,6.03,3.62,9.36,9.02,9.36,2.14,0,4.54-.59,6.83-1.57l2.8,6.42c-3.98,2.06-7.95,2.5-10.86,2.5-12.24,0-17.08-7.16-17.08-16.62Z"></path>
        <path class="cls-2" d="M201.07,415.47c0,9.66-6.98,16.67-17.18,16.67s-17.13-7.01-17.13-16.67,6.93-16.57,17.13-16.57,17.18,6.96,17.18,16.57ZM176.04,415.42c0,5.74,3.06,9.51,7.85,9.51s7.85-3.78,7.85-9.51-3.01-9.32-7.85-9.32-7.85,3.73-7.85,9.32Z"></path>
        <path class="cls-2" d="M233.34,399.58l-10.6,31.87h-9.23l-10.6-31.87h9.18l6.02,19.61,6.07-19.61h9.18Z"></path>
        <path class="cls-2" d="M260.57,424.64v6.81h-22.94v-31.87h22.84v6.81h-13.92v5.88h12.34v6.81h-12.34v5.54h14.02Z"></path>
        <path class="cls-2" d="M278.67,421.94h-3.36v9.51h-8.92v-31.87h13.61c8,0,11.98,5.54,11.98,11.13,0,3.53-1.53,7.11-5.1,9.17l7.54,11.57h-9.53l-6.22-9.51ZM275.3,415.13h3.57c2.75,0,4.13-2.25,4.13-4.56s-1.38-4.56-4.13-4.56h-3.57v9.12Z"></path>
      </g>
    </g>
    <g class="cls-3">
      <g class="cls-3">
        <path class="cls-4" d="M63.11,451.13c0,5.69-4.18,11.38-12.49,11.38h-3.72v9.27h-8.92v-31.87h12.64c8.36,0,12.49,5.59,12.49,11.23ZM54.08,450.98c0-2.35-1.38-4.66-4.13-4.66h-3.06v9.36h3.06c2.75,0,4.13-2.35,4.13-4.71Z"></path>
        <path class="cls-4" d="M97.21,439.9v31.87h-8.87v-12.6h-11.93v12.6h-8.92v-31.87h8.92v12.45h11.93v-12.45h8.87Z"></path>
        <path class="cls-4" d="M112.87,471.77h-8.92v-31.87h8.92v31.87Z"></path>
        <path class="cls-4" d="M142.84,464.96v6.81h-23.25v-31.87h8.92v25.05h14.33Z"></path>
        <path class="cls-4" d="M156.3,471.77h-8.92v-31.87h8.92v31.87Z"></path>
        <path class="cls-4" d="M188.17,451.13c0,5.69-4.18,11.38-12.49,11.38h-3.72v9.27h-8.92v-31.87h12.64c8.36,0,12.49,5.59,12.49,11.23ZM179.14,450.98c0-2.35-1.38-4.66-4.13-4.66h-3.06v9.36h3.06c2.75,0,4.13-2.35,4.13-4.71Z"></path>
        <path class="cls-4" d="M217.68,451.13c0,5.69-4.18,11.38-12.49,11.38h-3.72v9.27h-8.92v-31.87h12.64c8.36,0,12.49,5.59,12.49,11.23ZM208.66,450.98c0-2.35-1.38-4.66-4.13-4.66h-3.06v9.36h3.06c2.75,0,4.13-2.35,4.13-4.71Z"></path>
        <path class="cls-4" d="M230.99,471.77h-8.92v-31.87h8.92v31.87Z"></path>
        <path class="cls-4" d="M265.81,439.9v31.87h-5.86l-13.76-16.82v16.82h-8.46v-31.87h5.86l13.82,16.82v-16.82h8.41Z"></path>
        <path class="cls-4" d="M295.53,464.96v6.81h-22.94v-31.87h22.84v6.81h-13.92v5.88h12.34v6.81h-12.34v5.54h14.02Z"></path>
        <path class="cls-4" d="M323.62,441.23l-1.83,6.62c-3.57-1.32-6.63-1.81-8.62-1.81-2.6,0-3.67,1.28-3.67,2.5s1.17,2.01,4.38,3.24c7.54,2.75,11.27,6.13,11.27,11.47,0,6.03-5.15,9.22-12.69,9.22-3.88,0-8.16-.98-12.64-3.19l1.84-6.72c4.89,2.21,7.54,2.94,10.09,2.94,2.8,0,4.13-.78,4.13-2.45,0-1.81-1.78-2.6-5.91-4.27-6.63-2.65-9.69-5.59-9.69-9.8,0-5.44,5.1-9.76,12.64-9.76,3.26,0,6.53.44,10.71,2.01Z"></path>
      </g>
    </g>
  </g>
</svg></svg></g></g></svg>